<svg xmlns="http://www.w3.org/2000/svg"
            xmlns:xlink="http://www.w3.org/1999/xlink"
            version="1.1"
            baseProfile="full"
            viewBox="-1 -1 27 27"
            width="290"
            height="290"
            id="qrcode-81fdbd043e3733166a9d81bd684ce84d">
<rect style="fill:#FFFFFF;fill-opacity:1" x="-1" y="-1" width="291" height="291" />
<symbol id="tracker"><path d="m 0 7 0 7 7 0 0 -7 -7 0 z m 1 1 5 0 0 5 -5 0 0 -5 z m 1 1 0 3 3 0 0 -3 -3 0 z" style="fill:#000000;stroke:none"></path></symbol>
<use x="0" y="-7" xlink:href="#tracker"></use>
<use x="0" y="11" xlink:href="#tracker"></use>
<use x="18" y="-7" xlink:href="#tracker"></use>
<path d="M12,0 h1v2h-2v2h-2v1h-1v-3h1v-1h1v-1h1v1h1v-1 M12,6 h1v2h1v3h-3v2h-1v2h-1v-2h-3v-1h1v-1h-1v1h-2v-2h-2v-1h-2v-1h4v1h1v1h2v-1h1v1h2v-5h1v-1h1v-1h1v-1h4v6h1v2h-1v-1h-2v-2h1v-2h-1v2h-1v-2h-2v1 M14,3 v1h1v-1h-1 M11,6 v2h1v-2h-1 M11,9 v1h1v-1h-1 M17,11 h2v1h2v3h-1v-1h-1v1h-2v-1h-3v-2h3v1h1v-1h-1v-1 M21,11 h2v1h2v2h-1v-1h-2v-1h-1v-1 M12,12 h1v2h-1v2h-2v-1h1v-2h1v-1 M6,14 h2v3h-2v-1h1v-1h-1v-1 M2,15 h2v1h1v1h-3v-2 M8,17 h3v1h-1v1h2v1h-1v3h-1v-2h-1v-3h-1v-1 M15,21 h1v1h1v1h-2v1h-3v1h-4v-4h1v3h2v-1h3v-1h1v-1 M22,21 h3v1h-1v1h-1v1h2v1h-6v-1h1v-1h-2v-1h-1v-1h-1v-1h-1v1h-2v-3h1v-3h1v2h1v-1h3v-1h1v1h1v-1h1v1h2v-1h1v5h-1v-1h-3v3h1v-1 M17,17 v3h3v-3h-3 M21,17 v1h3v-1h-3 M15,18 v1h1v-1h-1 M21,23 v1h1v-1h-1 M8,0 v1h1v-1h-1 M14,0 v1h1v-1h-1 M16,0 v1h1v-1h-1 M8,6 v1h1v-1h-1 M6,8 v1h1v-1h-1 M8,8 v1h1v-1h-1 M24,8 v1h1v-1h-1 M23,9 v1h1v-1h-1 M1,10 v1h1v-1h-1 M16,10 v1h1v-1h-1 M0,11 v1h1v-1h-1 M2,11 v1h1v-1h-1 M5,13 v1h1v-1h-1 M1,14 v1h1v-1h-1 M13,14 v1h1v-1h-1 M0,15 v1h1v-1h-1 M5,15 v1h1v-1h-1 M12,16 v1h1v-1h-1 M18,18 v1h1v-1h-1 M17,23 v1h1v-1h-1 M20,8 h3v1h-3v-1 M19,9 h1v2h-1v-2 M2,13 h2v1h-2v-1 M22,14 h2v1h-2v-1" style="fill:#000000;stroke:none" ></path></svg>